# xmcd CD database file
#
# Track frame offsets:
#	150
#	11405
#	25945
#	47048
#	60465
#	80517
#	92583
#	101807
#	118877
#	136534
#	153308
#	165931
#
# Disc length: 2473 seconds
#
# Revision: 0
# Processed by: cddbd v1.5PL3 Copyright (c) Steve Scherf et al.
# Submitted via: CDex 1.51
#
DISCID=8709a70c
DTITLE=センチメンタル・バス - さよならガール
DYEAR=2000
DGENRE=Rock
TTITLE0=Sunny Day Sunday
TTITLE1=サイクリングビート330
TTITLE2=さよならガール
TTITLE3=Summer Time Kids Story
TTITLE4=飛行機雲とチワゲンカ
TTITLE5=400,000,000ロック
TTITLE6=WEED CROWN
TTITLE7=YELLOW TRAIN
TTITLE8=Silver Snow
TTITLE9=月の空ライダーズ
TTITLE10=マニアック問題
TTITLE11=半ズボン
EXTD=YEAR: 2000
EXTT0=
EXTT1=
EXTT2=
EXTT3=
EXTT4=
EXTT5=
EXTT6=
EXTT7=
EXTT8=
EXTT9=
EXTT10=
EXTT11=
PLAYORDER=
